<?xml version="1.0" standalone="no"?>
<!DOCTYPE svg PUBLIC "-//W3C//DTD SVG 20010904//EN"
 "http://www.w3.org/TR/2001/REC-SVG-20010904/DTD/svg10.dtd">
<svg version="1.0" xmlns="http://www.w3.org/2000/svg"
 width="512.000000pt" height="512.000000pt" viewBox="0 0 512.000000 512.000000"
 preserveAspectRatio="xMidYMid meet">
<metadata>
Created by potrace 1.14, written by Peter Selinger 2001-2017
</metadata>
<g transform="translate(0.000000,512.000000) scale(0.100000,-0.100000)"
fill="#000000" stroke="none">
<path d="M415 5110 c-183 -38 -330 -170 -391 -350 -18 -53 -19 -134 -19 -2200
0 -2066 1 -2147 19 -2200 52 -154 168 -274 322 -332 l59 -23 2155 0 2155 0 59
23 c154 58 270 178 322 332 18 53 19 134 19 2200 0 2066 -1 2147 -19 2200 -52
154 -168 274 -322 332 l-59 23 -2130 1 c-1172 1 -2148 -2 -2170 -6z m1417
-1606 l3 -706 588 706 589 706 654 0 c504 0 653 -3 648 -12 -4 -6 -270 -313
-591 -681 -555 -635 -583 -670 -570 -691 57 -87 1187 -1906 1187 -1910 0 -4
-280 -6 -623 -6 l-622 0 -339 595 c-186 328 -342 597 -345 600 -6 3 -266 -204
-503 -401 l-78 -65 0 -364 0 -365 -530 0 -530 0 0 1643 c0 904 3 1647 7 1650
3 4 242 7 530 7 l523 0 2 -706z"/>
</g>
</svg>
